<?xml version="1.0" standalone="no"?><svg xmlns="http://www.w3.org/2000/svg" viewBox="0 0 1440 320"><path fill="#96e6a1" fill-opacity="0.5" d="M0,160L7.5,181.3C15,203,30,245,45,218.7C60,192,75,96,90,90.7C105,85,120,171,135,176C150,181,165,107,180,106.7C195,107,210,181,225,192C240,203,255,149,270,122.7C285,96,300,96,315,128C330,160,345,224,360,218.7C375,213,390,139,405,117.3C420,96,435,128,450,128C465,128,480,96,495,90.7C510,85,525,107,540,112C555,117,570,107,585,122.7C600,139,615,181,630,208C645,235,660,245,675,224C690,203,705,149,720,149.3C735,149,750,203,765,208C780,213,795,171,810,176C825,181,840,235,855,256C870,277,885,267,900,229.3C915,192,930,128,945,128C960,128,975,192,990,229.3C1005,267,1020,277,1035,277.3C1050,277,1065,267,1080,261.3C1095,256,1110,256,1125,256C1140,256,1155,256,1170,229.3C1185,203,1200,149,1215,144C1230,139,1245,181,1260,170.7C1275,160,1290,96,1305,85.3C1320,75,1335,117,1350,165.3C1365,213,1380,267,1395,277.3C1410,288,1425,256,1433,240L1440,224L1440,0L1432.5,0C1425,0,1410,0,1395,0C1380,0,1365,0,1350,0C1335,0,1320,0,1305,0C1290,0,1275,0,1260,0C1245,0,1230,0,1215,0C1200,0,1185,0,1170,0C1155,0,1140,0,1125,0C1110,0,1095,0,1080,0C1065,0,1050,0,1035,0C1020,0,1005,0,990,0C975,0,960,0,945,0C930,0,915,0,900,0C885,0,870,0,855,0C840,0,825,0,810,0C795,0,780,0,765,0C750,0,735,0,720,0C705,0,690,0,675,0C660,0,645,0,630,0C615,0,600,0,585,0C570,0,555,0,540,0C525,0,510,0,495,0C480,0,465,0,450,0C435,0,420,0,405,0C390,0,375,0,360,0C345,0,330,0,315,0C300,0,285,0,270,0C255,0,240,0,225,0C210,0,195,0,180,0C165,0,150,0,135,0C120,0,105,0,90,0C75,0,60,0,45,0C30,0,15,0,8,0L0,0Z"></path></svg>